PathFileType	4	(X/Y/Z)	E:\3-PhD\Data\MocapData\ElaboratedData\009\pre\dynamicElaborations\RunL2\RunL2.trc
DataRate	CameraRate	NumFrames	NumMarkers	Units	OrigDataRate	DataStartFrame
200	200	5	54	mm	200	562
Frame#	Time	FHD			LBHD			RBHD			C7			T10			CLAV			LSHO			LUUPA			LMUPA			LDUPA			LLEP			LMEP			LRAD			LUL			LRFIN			RSHO			RUPA1			RMUPA			RDUPA			RLEP			RMEP			RRAD			RUL			RUFIN			RASI			USACR			LSACR			RSACR			LTHI1			LTHI2			LTHI3			LTHI4			LTIB1			LTIB2			LTIB3			LTIB4			LLMAL			LHEE			LMT1			LMT2			RTHI			RTHI2			RTHI3			RTHI4			RLFC			RTIB1			RTIB2			RTIB3			RTIB4			RLMAL			RHEE			RMT1			RMT2			RMT5		
		X1	Y1	Z1	X2	Y2	Z2	X3	Y3	Z3	X4	Y4	Z4	X5	Y5	Z5	X6	Y6	Z6	X7	Y7	Z7	X8	Y8	Z8	X9	Y9	Z9	X10	Y10	Z10	X11	Y11	Z11	X12	Y12	Z12	X13	Y13	Z13	X14	Y14	Z14	X15	Y15	Z15	X16	Y16	Z16	X17	Y17	Z17	X18	Y18	Z18	X19	Y19	Z19	X20	Y20	Z20	X21	Y21	Z21	X22	Y22	Z22	X23	Y23	Z23	X24	Y24	Z24	X25	Y25	Z25	X26	Y26	Z26	X27	Y27	Z27	X28	Y28	Z28	X29	Y29	Z29	X30	Y30	Z30	X31	Y31	Z31	X32	Y32	Z32	X33	Y33	Z33	X34	Y34	Z34	X35	Y35	Z35	X36	Y36	Z36	X37	Y37	Z37	X38	Y38	Z38	X39	Y39	Z39	X40	Y40	Z40	X41	Y41	Z41	X42	Y42	Z42	X43	Y43	Z43	X44	Y44	Z44	X45	Y45	Z45	X46	Y46	Z46	X47	Y47	Z47	X48	Y48	Z48	X49	Y49	Z49	X50	Y50	Z50	X51	Y51	Z51	X52	Y52	Z52	X53	Y53	Z53	X54	Y54	Z54	

562	2.805000	-775.553701	1533.320459	39.252439	-975.270923	1518.324076	34.457317	-888.440984	1523.215211	125.727698	-1021.811828	1404.325585	61.139433	-1194.732245	1100.993328	92.313999	-923.946074	1279.248901	61.284739	-939.223583	1331.154102	-77.518805	-1031.867376	1182.453159	-189.349886	-1011.409439	1141.744436	-176.138242	-1059.246602	1120.938969	-206.439840	-1125.345869	1017.323097	-226.789952	-1162.879636	1010.071414	-158.587975	-970.337245	822.718570	-144.141299	-1016.616726	777.954236	-177.932720	-915.762145	774.347467	-162.345196	-984.775948	1367.407258	213.204504	-1138.948689	1309.671750	297.257377	-1131.381990	1268.788822	317.563317	-1194.378308	1277.948748	318.916813	-1287.429219	1191.500737	374.204804	-1295.341770	1155.252759	309.182427	-1080.917981	1019.497577	405.781577	-1133.371919	991.989551	449.536863	-1030.623402	1003.366285	465.794821	-1025.748519	918.767047	184.997282	-1222.172640	1015.538098	125.124465	-1237.648542	980.025130	107.346293	-1216.803518	989.719124	161.405315	-1153.815595	613.973147	-27.136113	-1110.908885	540.809015	-21.942058	-1064.361038	549.558048	-21.501710	-1129.962180	486.679684	2.911495	-1207.035675	319.523831	135.191772	-1273.836304	366.311843	95.870835	-1263.780219	335.877992	123.944072	-1325.714677	342.150957	183.728202	-1475.297515	391.472112	214.694723	-1512.552507	474.190000	262.331908	-1466.602574	260.493759	317.244572	-1478.649248	251.419392	271.348054	-965.536783	753.581796	317.794063	-911.795088	717.203890	309.119307	-891.423840	719.543591	283.021222	-902.342416	637.260408	342.559414	-848.510966	541.847958	356.528894	-776.765760	336.121233	407.423297	-813.139714	281.186428	494.552376	-776.509239	273.832689	464.122750	-768.246538	218.847788	455.892481	-794.926202	141.390592	542.212497	-869.868523	84.461802	535.094279	-657.049196	71.691509	458.943020	-645.718324	78.427749	497.815555	-669.570098	60.854836	559.895048	
563	2.810000	-747.628164	1527.184043	30.665005	-947.330837	1510.868953	27.623023	-859.627287	1516.204692	118.121821	-993.070096	1398.836208	55.519636	-1168.987493	1097.007562	90.870175	-896.963510	1272.268422	54.087877	-914.204026	1322.869596	-85.410773	-1013.467109	1174.567678	-193.448735	-994.579088	1133.365323	-178.586072	-1043.067448	1113.545994	-208.733268	-1113.504197	1013.165102	-226.742204	-1149.569805	1008.343497	-157.929191	-972.797909	805.974386	-149.120379	-1023.200653	765.429365	-182.613255	-922.994438	753.149416	-168.874489	-953.156289	1361.342372	207.206374	-1104.549637	1302.486744	296.572740	-1095.995270	1261.452213	316.232138	-1159.023791	1270.184769	320.476645	-1249.208187	1182.726480	378.036066	-1259.024704	1146.459674	313.372876	-1037.692771	1015.144771	400.201022	-1087.465839	986.396984	445.622182	-984.483531	1000.098640	457.944356	-1001.254007	914.744949	184.152176	-1197.089981	1010.415682	123.326280	-1212.695018	974.932109	105.535547	-1191.421268	984.576519	159.482948	-1123.335985	611.071093	-34.215689	-1078.061222	539.250635	-31.693130	-1031.829102	549.493544	-32.179996	-1094.805777	484.028125	-7.621364	-1164.893725	318.852794	123.834273	-1232.105013	365.710447	85.200210	-1221.759027	335.380058	113.219149	-1282.681076	341.995483	173.572824	-1431.279240	392.216210	207.613103	-1468.151699	474.883914	255.942837	-1420.234487	261.309121	309.898800	-1433.123011	252.265055	264.361376	-941.701299	747.880024	316.341858	-888.241350	711.106648	308.769210	-866.898998	713.850476	283.547492	-880.125793	630.842446	341.340310	-826.798155	535.047846	355.752660	-762.048580	326.847048	408.142105	-801.218230	274.339198	495.011506	-764.770504	265.402566	465.625667	-758.977066	209.999212	458.115367	-789.385407	135.305825	545.371131	-865.741783	79.876737	539.797603	-653.123147	65.679886	462.757454	-641.618704	71.921682	501.600816	-665.202941	54.476984	563.914620	
564	2.815000	-720.081212	1520.956749	21.651255	-919.741843	1503.284312	20.354689	-831.194049	1509.106039	110.089605	-964.700793	1393.140688	49.562353	-1143.211580	1092.657794	89.373052	-870.261409	1265.058647	46.599741	-889.676508	1314.343258	-93.555875	-995.453175	1166.613060	-197.574872	-978.004927	1125.043902	-181.163653	-1027.118943	1106.142043	-211.119039	-1101.557285	1009.177347	-226.743297	-1135.908458	1006.476818	-157.277253	-976.119494	790.665367	-154.099470	-1030.287549	754.664553	-187.196514	-931.476592	733.805226	-175.500756	-921.603735	1355.086760	200.854164	-1069.452968	1294.821835	295.977329	-1059.850191	1253.629268	314.913669	-1122.717830	1261.895016	322.444363	-1209.689859	1173.323829	382.260204	-1221.700793	1137.103880	318.130655	-993.603522	1010.479368	393.975768	-1040.368551	980.453267	441.025150	-937.405732	996.583540	449.115607	-976.444214	910.604280	182.911307	-1171.958020	1005.017109	121.521599	-1187.678980	969.520492	103.799198	-1165.961149	979.227291	157.601532	-1092.765764	608.444478	-41.492393	-1045.094348	538.172685	-41.764943	-999.257064	549.977121	-43.156540	-1059.411405	481.902626	-18.572132	-1122.139260	318.306700	112.138412	-1190.008817	364.991905	74.389867	-1179.163764	334.779487	102.288962	-1238.921542	341.325801	163.295105	-1386.644358	391.768236	200.886452	-1423.331476	474.152912	250.123736	-1372.427859	260.846068	302.576730	-1386.255063	251.836644	257.500211	-918.524665	741.422848	315.597306	-865.405818	704.206126	309.481389	-842.906915	707.286157	285.346069	-858.960015	623.463822	340.718418	-805.884873	527.539953	355.503232	-748.503778	317.275483	409.209970	-790.592381	267.458147	495.869117	-754.354089	256.810053	467.458649	-751.222564	201.079292	460.694099	-785.410691	129.354550	548.816256	-862.989380	75.135986	545.021795	-650.784002	61.183992	466.398776	-638.994047	66.786210	505.180034	-661.966179	49.108033	567.768964	
565	2.820000	-692.922502	1514.687759	12.184361	-892.520545	1495.670695	12.663830	-803.138007	1501.999654	101.626072	-936.757272	1387.295017	43.263014	-1117.433393	1087.990044	87.744377	-843.841068	1257.685741	38.832747	-865.639354	1305.667517	-101.929312	-977.794659	1158.728559	-201.748270	-961.637590	1116.885222	-183.953077	-1011.370334	1098.866444	-213.663063	-1089.477518	1005.435113	-226.869776	-1121.929950	1004.530172	-156.708488	-980.067999	776.986482	-159.019923	-1037.618265	745.792331	-191.596904	-940.918613	716.544176	-182.135109	-890.173891	1348.717761	194.117348	-1033.608158	1286.730063	295.312199	-1022.927915	1245.389387	313.472100	-1085.373441	1253.159247	324.619866	-1168.796341	1163.359277	386.656415	-1183.282706	1127.242213	323.302580	-948.711771	1005.643120	387.007013	-992.148381	974.305593	435.640890	-889.503669	992.979055	439.214552	-951.102474	906.401835	180.896139	-1146.800439	999.410800	119.648724	-1162.612315	963.853828	102.086479	-1140.449916	973.751821	155.711989	-1062.124185	606.179658	-48.971875	-1012.059511	537.659405	-52.136616	-966.696583	551.079415	-54.390678	-1023.850373	480.403949	-29.921512	-1078.862664	317.949730	100.086683	-1147.643019	364.212532	63.463465	-1136.084966	334.135307	91.169655	-1194.520022	340.219190	152.956724	-1341.466071	390.145621	194.518658	-1378.156669	472.000066	244.895665	-1323.273192	259.149544	295.247765	-1338.125560	250.163438	250.709609	-896.059931	734.317679	315.488370	-843.354762	696.596503	311.138063	-819.571660	699.909655	288.271571	-838.887254	615.255166	340.620657	-785.865637	519.462908	355.813390	-736.077854	307.624451	410.618730	-781.176863	260.683496	497.054975	-745.179938	248.258234	469.575596	-744.826497	192.313004	463.550231	-782.789828	123.676988	552.386218	-861.371038	70.332778	550.498968	-649.750115	58.140529	469.757806	-637.582322	63.023386	508.441091	-659.660475	44.814751	571.326779	
566	2.825000	-666.158305	1508.438357	2.243083	-865.679156	1488.135623	4.567764	-775.450983	1494.974594	92.731362	-909.279332	1381.362424	36.623387	-1091.693053	1083.077290	85.896432	-817.695089	1250.228394	30.796137	-842.079510	1296.945637	-110.506424	-960.461224	1151.076228	-205.998569	-945.437790	1109.012083	-187.049546	-995.803503	1091.885651	-216.428587	-1077.256370	1002.030482	-227.197971	-1107.683785	1002.595111	-156.301444	-984.380928	765.111988	-163.824678	-1044.915216	738.913252	-195.738177	-950.989059	701.567048	-188.681003	-858.916468	1342.325948	186.968413	-996.966665	1278.289695	294.393773	-985.220337	1236.827464	311.748803	-1046.910461	1244.086318	326.761814	-1126.463769	1152.921315	390.970826	-1143.690570	1116.951530	328.703847	-903.097541	1000.798292	379.187218	-942.908051	968.132223	429.383795	-840.909699	989.470668	428.152092	-925.171911	902.179753	177.931016	-1121.653383	993.689070	117.630646	-1137.517763	958.020453	100.324513	-1114.928591	968.251854	153.746517	-1031.441477	604.354866	-56.649935	-979.025724	537.782881	-62.774304	-934.215099	552.856059	-65.838196	-988.213192	479.623320	-41.632617	-1035.157764	317.852527	87.663685	-1105.095658	363.426035	52.454065	-1092.610136	333.507423	79.882263	-1149.555580	338.775027	142.652845	-1295.801152	387.367737	188.495712	-1332.674816	468.431200	240.250747	-1272.854328	256.286282	287.877246	-1288.805080	247.294169	243.928512	-874.307607	726.755252	315.852161	-822.095593	688.455037	313.497013	-796.975395	691.869339	292.029729	-819.861976	606.454116	340.921080	-766.793915	511.023944	356.670623	-724.668890	298.132262	412.326628	-772.832453	254.156867	498.465050	-737.110641	239.958474	471.899017	-739.569182	183.926715	466.562335	-781.244191	118.407858	555.892773	-860.639006	65.621944	555.907891	-649.706088	56.332867	472.752645	-637.099460	60.477529	511.304906	-658.106337	41.530697	574.488224	
